<svg xmlns="http://www.w3.org/2000/svg" viewBox="0 0 64 64" fill="none">
  <rect width="64" height="64" rx="18" fill="#0F2A34"/>
  <rect x="8" y="8" width="48" height="48" rx="14" fill="#123A47"/>
  <path d="M22.5 26.5c0-3 2-5.2 4.7-5.2s4.7 2.2 4.7 5.2c0 2.8-1.7 4.9-4.7 4.9s-4.7-2.1-4.7-4.9zm10.4-4.7c0-2.6 1.8-4.5 4.2-4.5 2.4 0 4.2 1.9 4.2 4.5 0 2.5-1.6 4.5-4.2 4.5-2.6 0-4.2-2-4.2-4.5zm-17.2 0c0-2.6 1.8-4.5 4.2-4.5 2.4 0 4.2 1.9 4.2 4.5 0 2.5-1.6 4.5-4.2 4.5-2.6 0-4.2-2-4.2-4.5zm22.6 6.3c4.5 0 9.2 3.1 9.2 8.4 0 5.7-5.4 10.6-15.5 10.6S16.5 42.2 16.5 36.5c0-5.3 4.7-8.4 9.2-8.4 2.3 0 4.2 1.1 6.3 3.2 2.1-2.1 4-3.2 6.3-3.2z" fill="#9BE3E9"/>
  <path d="M36.4 36.2h-2.8v-2.8h-3.2v2.8h-2.8v3.2h2.8v2.8h3.2v-2.8h2.8v-3.2z" fill="#123A47"/>
</svg>
